HIERARCHY
ROOT Hips
{
  OFFSET -43.3411 73.6987 0
  CHANNELS 6 Xposition Yposition Zposition Zrotation Xrotation Yrotation
  JOINT Bip01_Pelvis
  {
    OFFSET 0 0 0
    CHANNELS 6 Xposition Yposition Zposition Zrotation Xrotation Yrotation
    JOINT BN_Tail_01
    {
      OFFSET -18.6385 -9.591 -2.032e-005
      CHANNELS 6 Xposition Yposition Zposition Zrotation Xrotation Yrotation
      JOINT BN_Tail_02
      {
        OFFSET 20.9743 0 0
        CHANNELS 6 Xposition Yposition Zposition Zrotation Xrotation Yrotation
        JOINT BN_Tail_03
        {
          OFFSET 20.3015 0 0
          CHANNELS 6 Xposition Yposition Zposition Zrotation Xrotation Yrotation
          JOINT BN_Tail_04
          {
            OFFSET 21.6394 -9.91821e-005 0
            CHANNELS 6 Xposition Yposition Zposition Zrotation Xrotation Yrotation
            End Site
            {
              OFFSET 0 0 0
            }
          }
        }
      }
    }
    JOINT Bip01_Spine
    {
      OFFSET 22.1878 -0.659386 3.048e-005
      CHANNELS 6 Xposition Yposition Zposition Zrotation Xrotation Yrotation
      JOINT Bip01_R_Thigh
      {
        OFFSET -22.1873 0.677109 -17.1024
        CHANNELS 6 Xposition Yposition Zposition Zrotation Xrotation Yrotation
        JOINT Bip01_R_Calf
        {
          OFFSET 34.2647 0 0
          CHANNELS 6 Xposition Yposition Zposition Zrotation Xrotation Yrotation
          JOINT Bip01_R_HorseLink
          {
            OFFSET 20.4429 0 0
            CHANNELS 6 Xposition Yposition Zposition Zrotation Xrotation Yrotation
            JOINT Bip01_R_Foot
            {
              OFFSET 16.5673 0 0
              CHANNELS 6 Xposition Yposition Zposition Zrotation Xrotation Yrotation
              JOINT Bip01_R_Toe0
              {
                OFFSET 9.18784 6.94841 0
                CHANNELS 6 Xposition Yposition Zposition Zrotation Xrotation Yrotation
                JOINT Bip01_R_Toe0Nub
                {
                  OFFSET 1.01907 0 0
                  CHANNELS 6 Xposition Yposition Zposition Zrotation Xrotation Yrotation
                  End Site
                  {
                    OFFSET 0 0 0
                  }
                }
              }
            }
          }
        }
      }
      JOINT Bip01_L_Thigh
      {
        OFFSET -22.1873 0.67701 17.1024
        CHANNELS 6 Xposition Yposition Zposition Zrotation Xrotation Yrotation
        JOINT Bip01_L_Calf
        {
          OFFSET 34.2647 0 0
          CHANNELS 6 Xposition Yposition Zposition Zrotation Xrotation Yrotation
          JOINT Bip01_L_HorseLink
          {
            OFFSET 20.4429 0 0
            CHANNELS 6 Xposition Yposition Zposition Zrotation Xrotation Yrotation
            JOINT Bip01_L_Foot
            {
              OFFSET 16.5673 0 0
              CHANNELS 6 Xposition Yposition Zposition Zrotation Xrotation Yrotation
              JOINT Bip01_L_Toe0
              {
                OFFSET 9.18784 6.9484 1.14441e-005
                CHANNELS 6 Xposition Yposition Zposition Zrotation Xrotation Yrotation
                JOINT Bip01_L_Toe0Nub
                {
                  OFFSET 1.01907 0 0
                  CHANNELS 6 Xposition Yposition Zposition Zrotation Xrotation Yrotation
                  End Site
                  {
                    OFFSET 0 0 0
                  }
                }
              }
            }
          }
        }
      }
      JOINT Bip01_Spine1
      {
        OFFSET 39.3372 -0.0249863 0
        CHANNELS 6 Xposition Yposition Zposition Zrotation Xrotation Yrotation
        JOINT Bip01_Neck
        {
          OFFSET 34.2837 -15.5934 -4.318e-005
          CHANNELS 6 Xposition Yposition Zposition Zrotation Xrotation Yrotation
          JOINT Bip01_R_Clavicle
          {
            OFFSET -17.9452 -11.3131 -6.19287
            CHANNELS 6 Xposition Yposition Zposition Zrotation Xrotation Yrotation
            JOINT Bip01_R_UpperArm
            {
              OFFSET 17.4439 1.52588e-005 -2.28882e-005
              CHANNELS 6 Xposition Yposition Zposition Zrotation Xrotation Yrotation
              JOINT Bip01_R_Forearm
              {
                OFFSET 30.6251 1.14441e-005 0
                CHANNELS 6 Xposition Yposition Zposition Zrotation Xrotation Yrotation
                JOINT Bip01_R_Hand
                {
                  OFFSET 31.2039 0 0
                  CHANNELS 6 Xposition Yposition Zposition Zrotation Xrotation Yrotation
                  JOINT Bip01_R_Finger0
                  {
                    OFFSET 22.1039 0.255862 -0.37902
                    CHANNELS 6 Xposition Yposition Zposition Zrotation Xrotation Yrotation
                    JOINT Bip01_R_Finger0Nub
                    {
                      OFFSET 12.0552 0 0
                      CHANNELS 6 Xposition Yposition Zposition Zrotation Xrotation Yrotation
                      End Site
                      {
                        OFFSET 0 0 0
                      }
                    }
                  }
                }
              }
            }
          }
          JOINT Bip01_L_Clavicle
          {
            OFFSET -17.9452 -11.3132 6.19281
            CHANNELS 6 Xposition Yposition Zposition Zrotation Xrotation Yrotation
            JOINT Bip01_L_UpperArm
            {
              OFFSET 17.444 0 1.14441e-005
              CHANNELS 6 Xposition Yposition Zposition Zrotation Xrotation Yrotation
              JOINT Bip01_L_Forearm
              {
                OFFSET 30.6251 0 0
                CHANNELS 6 Xposition Yposition Zposition Zrotation Xrotation Yrotation
                JOINT Bip01_L_Hand
                {
                  OFFSET 31.204 0 0
                  CHANNELS 6 Xposition Yposition Zposition Zrotation Xrotation Yrotation
                  JOINT Bip01_L_Finger0
                  {
                    OFFSET 22.1039 0.255856 0.379024
                    CHANNELS 6 Xposition Yposition Zposition Zrotation Xrotation Yrotation
                    JOINT Bip01_L_Finger0Nub
                    {
                      OFFSET 12.0552 0 0
                      CHANNELS 6 Xposition Yposition Zposition Zrotation Xrotation Yrotation
                      End Site
                      {
                        OFFSET 0 0 0
                      }
                    }
                  }
                }
              }
            }
          }
          JOINT Bip01_Neck1
          {
            OFFSET 14.9359 -0.0106278 0
            CHANNELS 6 Xposition Yposition Zposition Zrotation Xrotation Yrotation
            JOINT Bip01_Head
            {
              OFFSET 14.3578 0.505501 0
              CHANNELS 6 Xposition Yposition Zposition Zrotation Xrotation Yrotation
              JOINT BN_Ear_L_01
              {
                OFFSET 3.76994 -2.35629 12.3444
                CHANNELS 6 Xposition Yposition Zposition Zrotation Xrotation Yrotation
                End Site
                {
                  OFFSET 0 0 0
                }
              }
              JOINT BN_Ear_R_01
              {
                OFFSET 3.76995 -2.35622 -12.3442
                CHANNELS 6 Xposition Yposition Zposition Zrotation Xrotation Yrotation
                End Site
                {
                  OFFSET 0 0 0
                }
              }
              JOINT BN_Mouth_01
              {
                OFFSET 11.8395 10.8645 1.27e-005
                CHANNELS 6 Xposition Yposition Zposition Zrotation Xrotation Yrotation
                JOINT BN_Tongue_01
                {
                  OFFSET 9.73752 3.21674 1.016e-005
                  CHANNELS 6 Xposition Yposition Zposition Zrotation Xrotation Yrotation
                  JOINT BN_Tongue_02
                  {
                    OFFSET 9.04304 0.053505 0
                    CHANNELS 6 Xposition Yposition Zposition Zrotation Xrotation Yrotation
                    End Site
                    {
                      OFFSET 0 0 0
                    }
                  }
                }
                JOINT BN_Beard_01
                {
                  OFFSET 6.93466 -0.751793 0
                  CHANNELS 6 Xposition Yposition Zposition Zrotation Xrotation Yrotation
                  JOINT BN_Beard_02
                  {
                    OFFSET 13.0965 1.52588e-005 0
                    CHANNELS 6 Xposition Yposition Zposition Zrotation Xrotation Yrotation
                    End Site
                    {
                      OFFSET 0 0 0
                    }
                  }
                }
              }
              JOINT Bip01_HeadNub
              {
                OFFSET 25.6158 0 0
                CHANNELS 6 Xposition Yposition Zposition Zrotation Xrotation Yrotation
                End Site
                {
                  OFFSET 0 0 0
                }
              }
            }
          }
        }
      }
    }
  }
}
MOTION
Frames:	4
Frame Time:	0.0333333
-43.3411 73.3613 -0.761718 90.0001 -87.245 -180 -7.62939e-006 4.44089e-016 0 -88.48 5.81122 -79.7621 -18.6385 -9.591 -1.19209e-007 -44.8668 0.32666 179.943 20.9743 -7.6294e-006 -0.000677347 22.7539 0.195752 15.2272 20.3015 1.52588e-005 -9.53674e-007 7.73176 2.53046 16.9741 21.6394 1.52588e-005 -1.90735e-006 10.2958 5.51744 30.7461 21.787 1.59277 3.95159 9.25988 -3.06697 -1.47147 -22.2893 3.05924 -20.3547 -95.6116 -2.24674 179.829 34.2647 3.8147e-006 0.000518799 -48.2392 7.21072e-006 7.55291e-006 20.4429 7.10543e-015 3.8147e-006 70.8674 5.1476e-007 1.77832e-006 16.5673 -3.8147e-006 -3.8147e-006 -21.4992 7.5695 -0.637108 9.18782 6.94844 -1.90735e-006 89.5774 1.50133 -0.0661794 1.01907 4.44089e-016 -3.8147e-006 8.41974e-008 4.77512e-009 7.87619e-007 -21.4124 1.22793 13.7899 -103.843 18.6352 -175.453 34.2647 0 -1.90735e-006 -47.6231 5.7668e-006 7.37441e-006 20.4429 7.10543e-015 -1.90735e-006 62.7184 4.47704e-006 -9.45073e-006 16.5673 7.6294e-006 3.8147e-006 -21.4324 -2.25283 0.242875 9.18784 6.94841 5.72205e-006 89.5168 -1.72894 0.0743159 1.01906 0 1.90735e-006 -179.96 -5.69558e-005 7.17942e-005 39.3331 -0.0246429 0.000213325 -9.59526 -0.494717 -6.53756 34.2801 -15.593 -4.05312e-005 -14.555 -0.0001679 2.18244 -13.504 -16.1508 -6.71166 -163.85 -37.7459 118.407 17.444 7.6294e-006 0 32.2599 52.7582 -95.196 30.6251 4.76838e-007 -5.72204e-006 -16.9142 9.49834e-006 2.74391e-006 31.204 1.90735e-006 3.8147e-006 -137.028 79.9378 137.262 22.1039 0.255847 -0.379047 -7.17356 15.0334 -38.8031 12.0552 -1.90735e-006 -5.72203e-006 179.96 -9.81909e-007 -2.55454e-005 -13.9758 -16.1505 5.66503 -167.184 38.8373 -113.022 17.4439 0 -7.62939e-006 63.2096 -51.9465 111.498 30.6251 3.8147e-006 -3.55271e-015 -26.1401 -1.544e-005 -7.78887e-006 31.204 7.62941e-006 1.90735e-006 99.5342 -86.854 92.5513 22.1039 0.255847 0.379035 -10.0592 -4.19094 38.659 12.0552 -3.81471e-006 -7.10541e-015 1.22008e-007 1.02917e-005 -1.87696e-006 14.9375 -0.0103912 -0.000142336 12.9614 0.745706 3.46374 14.3578 0.505501 0 11.9386 2.0771 -1.86312 3.76995 -2.35629 12.3444 -172.167 32.7141 -81.1406 3.76997 -2.35622 -12.3442 5.88479 29.4885 114.375 11.8395 10.8646 0 -177.001 -3.70309 178.785 9.73752 3.21677 1.77636e-015 -2.85749 -1.01892e-007 -5.99294e-008 5.17481 0.535218 -0.1598 -9.7303 1.01976e-007 1.05291e-007 6.93465 -0.751778 9.53675e-007 -82.2976 -5.21349 -2.08038 13.0965 0 -2.38419e-007 -7.89266 -1.6355 -12.1212 25.6158 1.52588e-005 0 -6.60127e-008 2.49605e-008 2.39507e-008 
-43.242 73.4001 -0.839043 90.0001 -87.1503 -179.923 -7.62939e-006 -4.44089e-016 0 -88.5814 5.84301 -79.9928 -18.6385 -9.591 -1.19707e-007 -44.9155 0.00517088 178.459 20.9743 -7.62939e-006 -0.000677347 22.5516 0.381691 12.9925 20.3015 1.52588e-005 -9.53675e-007 7.68617 2.51556 16.2205 21.6394 1.52588e-005 -1.90735e-006 10.1101 5.49308 30.8254 21.8026 1.6061 3.85874 9.22129 -2.92088 -1.24396 -22.2256 2.97706 -20.3592 -95.3745 -2.23355 179.779 34.2647 3.8147e-006 0.000518799 -47.8871 7.30311e-006 7.45911e-006 20.4429 7.10543e-015 3.8147e-006 70.3862 -3.90328e-007 1.45133e-006 16.5673 -3.8147e-006 -3.8147e-006 -21.1633 7.6741 -0.573694 9.18782 6.94844 -1.90854e-006 89.5774 1.50133 -0.0661794 1.01907 1.64313e-014 -3.8147e-006 8.41974e-008 4.77512e-009 7.87619e-007 -21.4832 1.2331 13.7926 -103.857 18.6522 -175.512 34.2647 0 -1.90735e-006 -47.7057 5.73522e-006 7.38636e-006 20.4429 7.10543e-015 -1.90735e-006 62.6949 3.70461e-006 -9.87617e-006 16.5673 7.6294e-006 3.8147e-006 -21.3414 -2.15083 0.317589 9.18784 6.94841 5.72142e-006 89.5168 -1.72894 0.0743166 1.01906 -5.86198e-014 1.90735e-006 -179.96 -5.69558e-005 7.17942e-005 39.3331 -0.0246429 0.000213325 -9.44529 -0.527143 -6.54427 34.2801 -15.593 -4.05315e-005 -14.2734 0.0432368 2.16202 -13.5857 -16.0874 -6.69605 -164.153 -37.6702 117.901 17.444 7.6294e-006 -7.10543e-015 31.6065 52.7247 -94.3965 30.6251 4.76838e-007 -5.72204e-006 -17.3655 9.48455e-006 2.83136e-006 31.204 1.90735e-006 3.8147e-006 -137.336 79.8171 137.277 22.1039 0.255847 -0.379047 -7.19465 15.1167 -38.4402 12.0552 -1.90735e-006 -5.72203e-006 179.96 -9.81919e-007 -2.55454e-005 -14.0537 -16.0776 5.68077 -167.451 38.8672 -113.055 17.4439 1.42109e-014 -7.62939e-006 63.0016 -51.6792 111.522 30.6251 3.8147e-006 7.10542e-015 -26.6103 -1.53695e-005 -7.91225e-006 31.204 7.62941e-006 1.90735e-006 97.3502 -87.0635 90.6085 22.1039 0.255847 0.379035 -10.0592 -4.19123 38.3273 12.0552 -3.81471e-006 -5.68433e-014 1.22008e-007 1.02917e-005 -1.87696e-006 14.9375 -0.0103912 -0.000142336 12.6929 0.741772 3.46076 14.3578 0.505501 -7.00773e-012 11.6631 2.04766 -1.80824 3.76995 -2.35629 12.3444 -172.293 33.4649 -80.642 3.76997 -2.35622 -12.3442 5.75965 29.5707 114.527 11.8395 10.8646 -1.74584e-009 -177.379 -3.66413 179.243 9.73752 3.21677 -3.0767e-009 -2.85749 -9.71941e-008 -6.26613e-008 5.17481 0.535218 -0.1598 -9.7303 -1.58044e-006 9.96904e-006 6.93465 -0.751778 9.54394e-007 -82.7915 -4.65331 -2.05147 13.0965 0 -2.38419e-007 -7.89266 -1.6355 -12.1212 25.6158 1.52588e-005 -5.32907e-015 -6.60127e-008 2.49605e-008 2.39507e-008 
-43.1455 73.438 -0.914397 90.0001 -87.0534 -179.838 -7.62939e-006 0 0 -88.6819 5.87947 -80.2413 -18.6385 -9.591 -1.20247e-007 -45.06 -0.245072 177.147 20.9743 -7.62939e-006 -0.000677347 22.3305 0.634693 10.849 20.3015 1.52588e-005 -9.53675e-007 7.50111 2.45476 15.5518 21.6394 1.52588e-005 -1.90735e-006 9.59949 5.42729 31.0398 21.818 1.61864 3.76531 9.1799 -2.75965 -1.00308 -22.1568 2.88701 -20.3683 -95.1256 -2.21883 179.718 34.2647 3.8147e-006 0.000518799 -47.5133 7.29323e-006 7.45664e-006 20.4429 1.42109e-014 3.8147e-006 69.8954 -4.02939e-007 1.43338e-006 16.5673 -3.8147e-006 -3.8147e-006 -20.8238 7.78112 -0.510351 9.18782 6.94844 -1.90974e-006 89.5774 1.50133 -0.0661794 1.01907 -7.10542e-015 -3.8147e-006 8.41974e-008 4.77512e-009 7.87619e-007 -21.5579 1.23914 13.7921 -103.87 18.6704 -175.581 34.2647 2.4869e-014 -1.90735e-006 -47.7953 5.70228e-006 7.39911e-006 20.4429 -7.10543e-015 -1.90735e-006 62.6595 3.72472e-006 -9.89369e-006 16.5673 7.6294e-006 3.8147e-006 -21.2528 -2.05133 0.390238 9.18784 6.94841 5.72081e-006 89.5168 -1.72894 0.0743166 1.01906 7.32748e-015 1.90735e-006 -179.96 -5.69558e-005 7.17942e-005 39.3331 -0.0246429 0.000213325 -9.27903 -0.577177 -6.55879 34.2801 -15.593 -4.05319e-005 -14.0088 0.0819453 2.16887 -13.6594 -16.0277 -6.6913 -164.422 -37.5751 117.425 17.444 7.6294e-006 -7.10543e-015 30.9512 52.7505 -93.6152 30.6251 4.76838e-007 -5.72204e-006 -17.7293 9.3816e-006 3.18902e-006 31.204 1.90735e-006 3.8147e-006 -137.608 79.6877 137.203 22.1039 0.255847 -0.379047 -7.21673 15.202 -38.0757 12.0552 -1.90735e-006 -5.72203e-006 179.96 -9.81928e-007 -2.55454e-005 -14.1289 -16.0095 5.68546 -167.719 38.887 -113.063 17.4439 0 -7.62939e-006 62.8126 -51.4138 111.568 30.6251 3.8147e-006 1.42108e-014 -27.0758 -1.52982e-005 -8.03366e-006 31.204 7.62941e-006 1.90735e-006 94.5247 -87.2665 88.0322 22.1039 0.255847 0.379035 -10.0592 -4.1915 38.0042 12.0552 -3.81471e-006 -2.13162e-014 1.22008e-007 1.02917e-005 -1.87696e-006 14.9375 -0.0103912 -0.000142336 12.3834 0.777686 3.50714 14.3578 0.505501 -1.46283e-011 11.3701 2.01226 -1.78921 3.76995 -2.35629 12.3444 -172.426 34.1956 -80.1497 3.76997 -2.35622 -12.3442 5.63733 29.6504 114.675 11.8395 10.8646 -3.26898e-009 -177.71 -3.5597 179.631 9.73752 3.21677 -5.49897e-009 -2.85749 -9.34353e-008 -6.48121e-008 5.17481 0.535218 -0.1598 -9.7303 -1.57219e-006 9.96113e-006 6.93465 -0.751778 9.5496e-007 -83.3027 -4.16901 -1.99599 13.0965 1.42109e-014 -2.38419e-007 -7.89266 -1.6355 -12.1212 25.6158 1.52588e-005 -3.55271e-015 -6.60127e-008 2.49605e-008 2.39507e-008 
-43.048 73.4789 -0.992439 90 -86.9544 -179.749 -7.62939e-006 -4.44089e-016 -7.10543e-015 -88.7925 5.91731 -80.5101 -18.6385 -9.591 -1.2084e-007 -45.289 -0.446441 175.928 20.9743 -7.62939e-006 -0.000677347 22.0999 0.937456 8.69926 20.3015 1.52588e-005 -9.53675e-007 7.19877 2.359 14.9265 21.6394 1.52588e-005 -1.90735e-006 8.78301 5.3224 31.3769 21.8344 1.63306 3.66064 9.13925 -2.59353 -0.742245 -22.0818 2.79746 -20.374 -94.8674 -2.20446 179.66 34.2647 3.8147e-006 0.000518799 -47.112 7.37668e-006 7.36741e-006 20.4429 2.13163e-014 3.8147e-006 69.3783 -4.15241e-007 1.41419e-006 16.5673 -3.8147e-006 -3.8147e-006 -20.4774 7.89088 -0.446392 9.18782 6.94844 -1.91099e-006 89.5774 1.50133 -0.0661793 1.01907 2.93099e-014 -3.8147e-006 8.41974e-008 4.77512e-009 7.87619e-007 -21.6404 1.2477 13.7926 -103.897 18.6902 -175.645 34.2647 1.06581e-014 -1.90735e-006 -47.8871 5.66755e-006 7.41217e-006 20.4429 0 -1.90735e-006 62.6212 1.26422e-005 -5.30535e-006 16.5673 7.6294e-006 3.8147e-006 -21.1632 -1.95046 0.463633 9.18784 6.94841 5.72021e-006 89.5168 -1.72894 0.0743159 1.01906 -2.24265e-014 1.90735e-006 -179.96 -5.69558e-005 7.17942e-005 39.3331 -0.0246429 0.000213325 -9.10971 -0.624568 -6.57347 34.2801 -15.593 -4.05324e-005 -13.7419 0.121435 2.17327 -13.7361 -15.9662 -6.68228 -164.716 -37.4792 116.914 17.444 7.6294e-006 -7.10543e-015 30.2589 52.7872 -92.8018 30.6251 4.76838e-007 -5.72204e-006 -18.0866 9.46245e-006 2.96873e-006 31.204 1.90735e-006 3.8147e-006 -137.862 79.5443 137.086 22.1039 0.255847 -0.379047 -7.24154 15.2953 -37.6883 12.0552 -1.90735e-006 -5.72203e-006 179.96 -9.81938e-007 -2.55453e-005 -14.2048 -15.9392 5.6945 -167.985 38.8951 -113.084 17.4439 2.84217e-014 -7.62939e-006 62.6342 -51.136 111.637 30.6251 3.8147e-006 1.42108e-014 -27.5487 -1.52244e-005 -8.15617e-006 31.204 7.62941e-006 1.90735e-006 90.9133 -87.464 84.6932 22.1039 0.255847 0.379035 -10.0612 -4.19285 37.6448 12.0552 -3.81471e-006 -7.10541e-015 1.22007e-007 1.02917e-005 -8.76957e-007 14.9375 -0.0103912 -0.000142336 12.0764 0.812099 3.54493 14.3578 0.505501 -2.19114e-011 11.0748 1.98025 -1.76438 3.76995 -2.35629 12.3444 -172.568 34.9345 -79.6449 3.76997 -2.35622 -12.3442 5.5132 29.7309 114.825 11.8395 10.8646 -4.85152e-009 -177.988 -3.39993 179.963 9.73752 3.21677 -7.46455e-009 -2.85749 -9.02865e-008 -6.65575e-008 5.17481 0.535218 -0.1598 -9.7303 -1.56606e-006 9.95468e-006 6.93465 -0.751778 9.55419e-007 -83.7421 -3.74045 -1.85845 13.0965 1.42109e-014 -2.38419e-007 -7.89266 -1.6355 -12.1212 25.6158 1.52588e-005 -1.24345e-014 -6.60127e-008 2.49605e-008 2.39507e-008 
